<svg width="40" height="40" viewBox="0 0 40 40" fill="none" xmlns="http://www.w3.org/2000/svg">
<path d="M36.6693 7C36.6693 8.66667 35.0026 12 28.3359 12C21.6693 12 20.0026 8.66667 20.0026 7C20.0026 8.66667 18.3359 12 11.6693 12C5.0026 12 3.33594 8.66667 3.33594 7M6.66927 12V13.6667C6.66927 15.8667 7.1126 18.0333 7.6026 20.1667C8.5026 24.0767 8.9526 29.6333 6.66927 33.6667M33.3359 12V13.6667C33.3359 15.8667 32.8926 18.0333 32.4026 20.1667C31.5026 24.0767 31.0526 29.6333 33.3359 33.6667M26.6693 28.6667C24.1943 30.6317 22.7426 30.9483 20.5409 29.1367C20.3868 29.0083 20.1941 28.9352 19.9936 28.9289C19.7931 28.9225 19.5963 28.9833 19.4343 29.1017C17.1093 30.8 15.6693 30.8167 13.3359 28.6667M26.6693 20.3333C24.1943 22.2983 22.7426 22.615 20.5409 20.8033C20.3868 20.675 20.1941 20.6019 19.9936 20.5955C19.7931 20.5892 19.5963 20.65 19.4343 20.7683C17.1093 22.4667 15.6693 22.4833 13.3359 20.3333M20.0026 20.3333V17" stroke="black" stroke-width="2.5" stroke-linecap="round" stroke-linejoin="round"/>
</svg>
