<svg width="40" height="40" viewBox="0 0 40 40" fill="none" xmlns="http://www.w3.org/2000/svg">
<path d="M30.0026 5V13.3333M10.0026 5V13.3333M34.1693 6.66667V9.16667M34.1693 9.16667V11.6667M34.1693 9.16667H36.6693M5.83594 6.66667V9.16667M5.83594 9.16667V11.6667M5.83594 9.16667H3.33594M30.0026 9.16667H10.0026M16.6693 9.16667V16.6667M23.3359 9.16667V16.6667M31.5893 26.6667H8.43927M26.6693 31.6667V35M13.3359 31.6667V35M23.7626 16.6667H17.0126C15.3343 16.6667 14.7126 16.9067 13.7893 18.32L8.7676 26.0067C8.4576 26.48 8.33594 26.8567 8.33594 27.43C8.33594 31.0183 9.79094 31.6667 13.0809 31.6667H26.8309C30.2243 31.6667 31.6693 31.0267 31.6693 27.3467C31.6693 26.8367 31.5743 26.4967 31.3293 26.0583L27.1009 18.5083C26.2109 16.92 25.5709 16.6667 23.7626 16.6667Z" stroke="black" stroke-width="2.5" stroke-linecap="round" stroke-linejoin="round"/>
</svg>
