<svg width="40" height="40" viewBox="0 0 40 40" fill="none" xmlns="http://www.w3.org/2000/svg">
<path d="M20.6778 21.6957C21.4375 19.9347 22.7814 18.4896 24.4827 17.6043C26.184 16.719 28.1386 16.4476 30.0167 16.8359C31.8949 17.2242 33.5816 18.2485 34.7923 19.7359C36.0031 21.2233 36.6637 23.0828 36.6628 25.0007C36.6628 31.444 29.9961 36.6673 21.6628 36.6673C14.8678 36.6673 8.07445 35.3007 4.37778 32.564C3.66778 32.0373 3.32612 31.1773 3.34445 30.294C3.52612 21.2057 4.37445 3.33398 16.6628 3.33398C17.9889 3.33398 19.2606 3.86077 20.1983 4.79845C21.136 5.73613 21.6628 7.0079 21.6628 8.33398C21.6628 9.21804 21.3116 10.0659 20.6865 10.691C20.0613 11.3161 19.2135 11.6673 18.3294 11.6673C16.4878 11.6673 15.5961 10.9273 14.9961 10.0007" stroke="black" stroke-width="2.5" stroke-linecap="round" stroke-linejoin="round"/>
<path d="M24.9994 23.334C23.9935 22.5792 22.8299 22.0618 21.5957 21.8207C20.3614 21.5795 19.0886 21.6208 17.8726 21.9415C16.6566 22.2622 15.529 22.8539 14.5742 23.6723C13.6194 24.4908 12.8622 25.5147 12.3594 26.6674" stroke="black" stroke-width="2.5" stroke-linecap="round" stroke-linejoin="round"/>
<path d="M16.6015 11.375C13.3598 13.295 15.8281 21.6667 13.3281 25" stroke="black" stroke-width="2.5" stroke-linecap="round" stroke-linejoin="round"/>
</svg>
