<svg width="40" height="40" viewBox="0 0 40 40" fill="none" xmlns="http://www.w3.org/2000/svg">
<path d="M18.2466 35L20.13 29.3167C20.8033 27.2917 21.14 26.2783 20.6366 25.5767C20.135 24.8767 19.07 24.8767 16.945 24.8767H14.8883M14.8883 24.8767L13.2083 24.875C11.6283 24.875 10.8366 24.875 10.3333 24.255C9.82998 23.6317 9.97331 22.9333 10.2616 21.5333C10.745 19.19 11.715 16.2783 13.4866 14.2983C13.9766 13.7517 14.22 13.4783 14.7583 13.365C15.2966 13.2517 15.7266 13.4483 16.5866 13.8417L19.69 15.2583L20.995 15.855C22.5283 16.555 23.295 16.905 24.1033 16.8683C24.9116 16.83 25.6433 16.41 27.1066 15.57L30 13.91M14.8883 24.8767C15.29 22.685 16.8133 17.6883 19.6883 15.2583M21.6666 7.5C21.6666 8.16304 21.4033 8.79893 20.9344 9.26777C20.4656 9.73661 19.8297 10 19.1666 10C18.5036 10 17.8677 9.73661 17.3989 9.26777C16.93 8.79893 16.6666 8.16304 16.6666 7.5C16.6666 6.83696 16.93 6.20107 17.3989 5.73223C17.8677 5.26339 18.5036 5 19.1666 5C19.8297 5 20.4656 5.26339 20.9344 5.73223C21.4033 6.20107 21.6666 6.83696 21.6666 7.5Z" stroke="black" stroke-width="2.5" stroke-linecap="round" stroke-linejoin="round"/>
</svg>
